<mxfile host="www.draw.io" modified="2024-03-29T10:33:21.231Z" agent="Mozilla/5.0 (Windows NT 10.0; Win64; x64) AppleWebKit/537.36 (KHTML, like Gecko) Chrome/123.0.0.0 Safari/537.36" etag="DrVAInUYai9oK5vblbD8" version="24.2.1" type="device">
  <diagram name="Page-1" id="gioJNTbegOXUDCjD5j6i">
    <mxGraphModel dx="686" dy="753" grid="1" gridSize="10" guides="1" tooltips="1" connect="1" arrows="1" fold="1" page="1" pageScale="1" pageWidth="827" pageHeight="1169" math="0" shadow="0">
      <root>
        <mxCell id="0" />
        <mxCell id="1" parent="0" />
        <mxCell id="On4kshNV5JQIj9pJB5Vx-5" value="" style="edgeStyle=orthogonalEdgeStyle;rounded=0;orthogonalLoop=1;jettySize=auto;html=1;" edge="1" parent="1" source="On4kshNV5JQIj9pJB5Vx-1" target="On4kshNV5JQIj9pJB5Vx-4">
          <mxGeometry relative="1" as="geometry" />
        </mxCell>
        <mxCell id="On4kshNV5JQIj9pJB5Vx-6" style="edgeStyle=orthogonalEdgeStyle;rounded=0;orthogonalLoop=1;jettySize=auto;html=1;exitX=0.5;exitY=1;exitDx=0;exitDy=0;entryX=0.5;entryY=0;entryDx=0;entryDy=0;" edge="1" parent="1" source="On4kshNV5JQIj9pJB5Vx-1" target="On4kshNV5JQIj9pJB5Vx-2">
          <mxGeometry relative="1" as="geometry" />
        </mxCell>
        <mxCell id="On4kshNV5JQIj9pJB5Vx-18" style="edgeStyle=orthogonalEdgeStyle;rounded=0;orthogonalLoop=1;jettySize=auto;html=1;exitX=1;exitY=0.5;exitDx=0;exitDy=0;entryX=1;entryY=0.5;entryDx=0;entryDy=0;" edge="1" parent="1" source="On4kshNV5JQIj9pJB5Vx-1" target="On4kshNV5JQIj9pJB5Vx-16">
          <mxGeometry relative="1" as="geometry">
            <Array as="points">
              <mxPoint x="500" y="105" />
              <mxPoint x="500" y="485" />
            </Array>
          </mxGeometry>
        </mxCell>
        <mxCell id="On4kshNV5JQIj9pJB5Vx-1" value="&lt;font style=&quot;font-size: 16px;&quot;&gt;&lt;b&gt;Input&lt;/b&gt;&lt;/font&gt;" style="rounded=0;whiteSpace=wrap;html=1;fillColor=#f5f5f5;fontColor=#333333;strokeColor=#666666;" vertex="1" parent="1">
          <mxGeometry x="330" y="90" width="60" height="30" as="geometry" />
        </mxCell>
        <mxCell id="On4kshNV5JQIj9pJB5Vx-8" value="" style="edgeStyle=orthogonalEdgeStyle;rounded=0;orthogonalLoop=1;jettySize=auto;html=1;" edge="1" parent="1" source="On4kshNV5JQIj9pJB5Vx-2" target="On4kshNV5JQIj9pJB5Vx-7">
          <mxGeometry relative="1" as="geometry" />
        </mxCell>
        <mxCell id="On4kshNV5JQIj9pJB5Vx-2" value="&lt;font style=&quot;font-size: 16px;&quot;&gt;&lt;b&gt;1 * 1 Conv, 24&lt;/b&gt;&lt;/font&gt;" style="rounded=0;whiteSpace=wrap;html=1;fillColor=#f8cecc;strokeColor=#b85450;" vertex="1" parent="1">
          <mxGeometry x="250" y="160" width="90" height="50" as="geometry" />
        </mxCell>
        <mxCell id="On4kshNV5JQIj9pJB5Vx-12" value="" style="edgeStyle=orthogonalEdgeStyle;rounded=0;orthogonalLoop=1;jettySize=auto;html=1;" edge="1" parent="1" source="On4kshNV5JQIj9pJB5Vx-4" target="On4kshNV5JQIj9pJB5Vx-11">
          <mxGeometry relative="1" as="geometry" />
        </mxCell>
        <mxCell id="On4kshNV5JQIj9pJB5Vx-4" value="&lt;font style=&quot;font-size: 16px;&quot;&gt;&lt;b&gt;1 * 1 Conv, 24&lt;/b&gt;&lt;/font&gt;" style="rounded=0;whiteSpace=wrap;html=1;fillColor=#f8cecc;strokeColor=#b85450;" vertex="1" parent="1">
          <mxGeometry x="380" y="160" width="90" height="50" as="geometry" />
        </mxCell>
        <mxCell id="On4kshNV5JQIj9pJB5Vx-10" value="" style="edgeStyle=orthogonalEdgeStyle;rounded=0;orthogonalLoop=1;jettySize=auto;html=1;" edge="1" parent="1" source="On4kshNV5JQIj9pJB5Vx-7" target="On4kshNV5JQIj9pJB5Vx-9">
          <mxGeometry relative="1" as="geometry" />
        </mxCell>
        <mxCell id="On4kshNV5JQIj9pJB5Vx-7" value="&lt;font style=&quot;font-size: 16px;&quot;&gt;&lt;b&gt;1 * 1 Conv, 28&lt;/b&gt;&lt;/font&gt;" style="rounded=0;whiteSpace=wrap;html=1;fillColor=#f8cecc;strokeColor=#b85450;" vertex="1" parent="1">
          <mxGeometry x="250" y="250" width="90" height="50" as="geometry" />
        </mxCell>
        <mxCell id="On4kshNV5JQIj9pJB5Vx-13" value="" style="edgeStyle=orthogonalEdgeStyle;rounded=0;orthogonalLoop=1;jettySize=auto;html=1;" edge="1" parent="1" source="On4kshNV5JQIj9pJB5Vx-9" target="On4kshNV5JQIj9pJB5Vx-11">
          <mxGeometry relative="1" as="geometry" />
        </mxCell>
        <mxCell id="On4kshNV5JQIj9pJB5Vx-9" value="&lt;font style=&quot;font-size: 16px;&quot;&gt;&lt;b&gt;1 * 1 Conv, 32&lt;/b&gt;&lt;/font&gt;" style="rounded=0;whiteSpace=wrap;html=1;fillColor=#f8cecc;strokeColor=#b85450;" vertex="1" parent="1">
          <mxGeometry x="250" y="330" width="90" height="50" as="geometry" />
        </mxCell>
        <mxCell id="On4kshNV5JQIj9pJB5Vx-15" value="" style="edgeStyle=orthogonalEdgeStyle;rounded=0;orthogonalLoop=1;jettySize=auto;html=1;" edge="1" parent="1" source="On4kshNV5JQIj9pJB5Vx-11" target="On4kshNV5JQIj9pJB5Vx-14">
          <mxGeometry relative="1" as="geometry" />
        </mxCell>
        <mxCell id="On4kshNV5JQIj9pJB5Vx-11" value="&lt;font style=&quot;font-size: 16px;&quot;&gt;&lt;b&gt;Concatenate&lt;/b&gt;&lt;/font&gt;" style="rounded=0;whiteSpace=wrap;html=1;fillColor=#f5f5f5;fontColor=#333333;strokeColor=#666666;" vertex="1" parent="1">
          <mxGeometry x="362.5" y="340" width="125" height="30" as="geometry" />
        </mxCell>
        <mxCell id="On4kshNV5JQIj9pJB5Vx-17" value="" style="edgeStyle=orthogonalEdgeStyle;rounded=0;orthogonalLoop=1;jettySize=auto;html=1;" edge="1" parent="1" source="On4kshNV5JQIj9pJB5Vx-14" target="On4kshNV5JQIj9pJB5Vx-16">
          <mxGeometry relative="1" as="geometry" />
        </mxCell>
        <mxCell id="On4kshNV5JQIj9pJB5Vx-14" value="&lt;span style=&quot;font-size: 16px;&quot;&gt;&lt;b&gt;1 *&amp;nbsp; 1Con, 256&lt;/b&gt;&lt;/span&gt;" style="rounded=0;whiteSpace=wrap;html=1;fillColor=#f8cecc;strokeColor=#b85450;" vertex="1" parent="1">
          <mxGeometry x="380" y="400" width="90" height="50" as="geometry" />
        </mxCell>
        <mxCell id="On4kshNV5JQIj9pJB5Vx-20" value="" style="edgeStyle=orthogonalEdgeStyle;rounded=0;orthogonalLoop=1;jettySize=auto;html=1;" edge="1" parent="1" source="On4kshNV5JQIj9pJB5Vx-16" target="On4kshNV5JQIj9pJB5Vx-19">
          <mxGeometry relative="1" as="geometry" />
        </mxCell>
        <mxCell id="On4kshNV5JQIj9pJB5Vx-16" value="&lt;span style=&quot;font-size: 16px;&quot;&gt;&lt;b&gt;Add&lt;/b&gt;&lt;/span&gt;" style="rounded=0;whiteSpace=wrap;html=1;fillColor=#f5f5f5;strokeColor=#666666;fontColor=#333333;" vertex="1" parent="1">
          <mxGeometry x="390" y="470" width="70" height="30" as="geometry" />
        </mxCell>
        <mxCell id="On4kshNV5JQIj9pJB5Vx-19" value="&lt;span style=&quot;font-size: 16px;&quot;&gt;&lt;b&gt;ReLU&lt;/b&gt;&lt;/span&gt;" style="rounded=0;whiteSpace=wrap;html=1;fillColor=#dae8fc;strokeColor=#6c8ebf;" vertex="1" parent="1">
          <mxGeometry x="390" y="520" width="70" height="30" as="geometry" />
        </mxCell>
      </root>
    </mxGraphModel>
  </diagram>
</mxfile>
